<svg width="365" height="245" viewBox="0 0 365 245" fill="none" xmlns="http://www.w3.org/2000/svg">
<path d="M171.529 154.702C171.529 150.037 172.351 145.58 174.096 141.433C175.738 137.286 178.305 133.451 181.488 129.926C184.67 126.712 188.263 124.224 192.267 122.462C196.271 120.7 200.583 119.87 205.1 119.87C209.617 119.87 213.826 120.7 217.933 122.462C222.039 124.224 225.53 126.712 228.712 129.926C231.895 133.243 234.358 136.975 236.001 141.226C237.644 145.476 238.465 149.934 238.465 154.702C238.465 159.367 237.644 163.825 236.001 168.076C234.358 172.326 231.895 176.058 228.712 179.375C225.53 182.693 221.936 185.181 217.933 186.839C213.929 188.498 209.617 189.431 205.1 189.431C200.583 189.431 196.374 188.602 192.267 186.839C188.263 185.181 184.67 182.589 181.488 179.375C178.202 175.954 175.738 172.119 174.096 167.972C172.351 163.722 171.529 159.264 171.529 154.702ZM177.586 154.599C177.586 162.788 180.256 169.734 185.594 175.436C190.932 181.138 197.4 183.937 205.1 183.937C212.697 183.937 219.164 181.034 224.503 175.332C229.841 169.631 232.408 162.685 232.408 154.495C232.408 146.202 229.739 139.256 224.503 133.658C219.164 127.956 212.697 125.157 205.1 125.157C197.4 125.157 190.932 127.956 185.594 133.658C180.256 139.36 177.586 146.305 177.586 154.599Z" fill="#6D2080"/>
<path d="M243.716 121.287H249.876L271.438 179.815C271.849 180.953 272.157 181.676 272.568 182.193C272.978 182.711 273.389 182.917 273.8 182.917C274.313 182.917 274.724 182.607 275.237 182.09C275.648 181.573 276.059 180.849 276.367 179.815L297.929 121.184H304.089L281.295 182.607C280.474 185.089 279.447 186.847 278.318 187.881C277.188 188.915 275.751 189.432 274.005 189.432C272.26 189.432 270.72 188.915 269.59 187.881C268.461 186.847 267.434 185.089 266.612 182.607L243.716 121.287Z" fill="#6D2080"/>
<path d="M364.461 189.329H358.301L336.739 130.801C336.328 129.663 336.02 128.939 335.609 128.422C335.199 127.905 334.788 127.698 334.377 127.698C333.864 127.698 333.453 128.009 332.94 128.526C332.529 129.043 332.118 129.767 331.81 130.801L310.248 189.432H304.088L326.882 128.009C327.703 125.527 328.73 123.769 329.859 122.735C330.989 121.701 332.426 121.184 334.172 121.184C335.917 121.184 337.457 121.701 338.587 122.735C339.716 123.769 340.743 125.527 341.564 128.009L364.461 189.329Z" fill="#6D2080"/>
<path d="M16.6578 145.466C11.0682 175.387 37.3405 210.594 62.805 222.988C71.3912 227.167 82.2282 230.678 91.023 231.519C107.784 233.122 124.951 228.02 138.718 220.931C197.123 188.12 190.461 99.9438 189.384 92.1681C184.726 57.8038 166.377 10.9205 145.161 8.44915C124.369 5.95964 123.028 48.8263 76.6664 95.6347C42.2964 130.195 21.232 121.064 16.6578 145.466Z" fill="#6D2080"/>
<path opacity="0.85" d="M27.8787 181.389C30.725 205.559 57.8784 223.566 79.3236 229.529C111.706 238.487 141.715 223.173 159.717 205.18C205.984 158.691 176.143 80.204 173.816 74.4576C160.113 41.9549 130.203 6.04058 109.695 9.80446C90.0074 13.4178 100.818 53.2632 71.6876 109.38C50.1601 150.903 25.1081 157.63 27.8787 181.389Z" fill="#00FF9E"/>
<path d="M72.168 145.787V189.306H66.6582V147.653C66.6582 139.07 68.915 132.262 73.3112 127.418L73.3121 127.417C77.7069 122.473 83.8414 119.995 91.5265 119.995C96.1343 119.995 100.328 121.131 103.803 123.294L103.804 123.295C107.381 125.458 110.351 128.757 112.915 133.202L113.021 133.386L113.13 133.204C115.797 128.759 118.869 125.459 122.447 123.295C126.027 121.13 130.016 119.995 134.622 119.995C142.306 119.995 148.339 122.472 152.837 127.418C157.337 132.366 159.593 139.071 159.593 147.653V189.306H153.98V145.787C153.98 139.646 152.224 134.637 148.701 130.878C145.178 127.014 140.618 125.136 134.93 125.136C129.243 125.136 124.58 127.013 121.056 130.879C117.535 134.741 115.778 139.645 115.778 145.787V189.306H110.268V145.787C110.268 139.646 108.512 134.638 104.989 130.878C101.466 127.014 96.9056 125.136 91.2179 125.136C85.632 125.136 81.0726 127.014 77.4473 130.877L77.4461 130.879C73.9248 134.741 72.168 139.645 72.168 145.787Z" fill="white" stroke="white" stroke-width="0.25"/>
</svg>
